<svg width="62" height="62" viewBox="0 0 62 62" fill="none" xmlns="http://www.w3.org/2000/svg">
<path d="M11.268 52.0566L6.97998 3.94336H54.1138L49.8201 52.049L30.5183 57.4004L11.268 52.0566Z" fill="#1572B6"/>
<path d="M30.5469 53.3109L46.1449 48.9866L49.8143 7.87817H30.5469V53.3109Z" fill="#33A9DC"/>
<path d="M30.5469 25.3091H38.3554L38.8938 19.2665H30.5469V13.3652H45.343L45.2017 14.9479L43.7527 31.2103H30.5469V25.3091Z" fill="white"/>
<path d="M30.5831 40.6339L30.5563 40.6416L23.985 38.866L23.5649 34.1599H17.6407L18.4674 43.4252L30.5544 46.7815L30.5831 46.7739V40.6339Z" fill="#EBEBEB"/>
<path d="M37.8534 30.96L37.1432 38.8621L30.5623 40.6376V46.7775L42.6588 43.425L42.7486 42.4284L43.7738 30.96H37.8534Z" fill="white"/>
<path d="M30.5678 13.3652V19.2665H16.3139L16.1955 17.9396L15.9263 14.9479L15.785 13.3652H30.5678Z" fill="#EBEBEB"/>
<path d="M30.5468 25.3088V31.2101H24.0575L23.9391 29.8832L23.6718 26.8915L23.5305 25.3088H30.5468Z" fill="#EBEBEB"/>
</svg>
