<svg width="51" height="52" viewBox="0 0 51 52" fill="none" xmlns="http://www.w3.org/2000/svg">
<g clip-path="url(#clip0)">
<path d="M33.8646 34.5207C38.5101 34.5207 42.276 30.7547 42.276 26.1092C42.276 21.4637 38.5101 17.6978 33.8646 17.6978C29.2191 17.6978 25.4531 21.4637 25.4531 26.1092C25.4531 30.7547 29.2191 34.5207 33.8646 34.5207Z" fill="#19BCFE"/>
<path fill-rule="evenodd" clip-rule="evenodd" d="M17.0417 51.3437C19.2726 51.3437 21.4121 50.4574 22.9895 48.88C24.567 47.3025 25.4532 45.1631 25.4532 42.9322V34.5208H17.0417C14.8108 34.5208 12.6714 35.407 11.0939 36.9844C9.51645 38.5619 8.63025 40.7013 8.63025 42.9322C8.63025 45.1631 9.51645 47.3025 11.0939 48.88C12.6714 50.4574 14.8108 51.3437 17.0417 51.3437Z" fill="#09CF83"/>
<path fill-rule="evenodd" clip-rule="evenodd" d="M17.0417 34.5207H25.4532V17.6978H17.0417C14.8108 17.6978 12.6714 18.584 11.0939 20.1614C9.51645 21.7389 8.63025 23.8784 8.63025 26.1092C8.63025 28.3401 9.51645 30.4796 11.0939 32.057C12.6714 33.6345 14.8108 34.5207 17.0417 34.5207Z" fill="#A259FF"/>
<path fill-rule="evenodd" clip-rule="evenodd" d="M17.0417 17.6977H25.4532V0.874756H17.0417C14.8108 0.874756 12.6714 1.76096 11.0939 3.33842C9.51645 4.91587 8.63025 7.05536 8.63025 9.28622C8.63025 11.5171 9.51645 13.6566 11.0939 15.234C12.6714 16.8115 14.8108 17.6977 17.0417 17.6977Z" fill="#F24E1E"/>
<path fill-rule="evenodd" clip-rule="evenodd" d="M33.8646 17.6977H25.4531V0.874756H33.8646C36.0954 0.874756 38.2349 1.76096 39.8124 3.33842C41.3898 4.91587 42.276 7.05536 42.276 9.28622C42.276 11.5171 41.3898 13.6566 39.8124 15.234C38.2349 16.8115 36.0954 17.6977 33.8646 17.6977Z" fill="#FF7262"/>
</g>
<defs>
<clipPath id="clip0">
<rect width="50.4688" height="50.4688" fill="white" transform="translate(0.21875 0.874756)"/>
</clipPath>
</defs>
</svg>
