<svg width="54" height="54" viewBox="0 0 54 54" fill="none" xmlns="http://www.w3.org/2000/svg">
<g clip-path="url(#clip0)">
<path d="M52.7474 24.8808L29.5483 1.69007C29.2307 1.37157 28.8533 1.11888 28.4378 0.946466C28.0223 0.774051 27.5769 0.685303 27.127 0.685303C26.6772 0.685303 26.2317 0.774051 25.8162 0.946466C25.4007 1.11888 25.0234 1.37157 24.7057 1.69007L19.8979 6.50618L26.0106 12.6106C26.7286 12.367 27.5005 12.3295 28.2388 12.5023C28.9771 12.6752 29.6522 13.0514 30.1875 13.5884C31.3297 14.7306 31.6484 16.3725 31.1653 17.7903L37.0456 23.6788C37.766 23.428 38.5427 23.3857 39.2861 23.5569C40.0295 23.7282 40.7094 24.1059 41.2475 24.6467C42.8479 26.2371 42.8479 28.8137 41.2475 30.4058C40.8701 30.7839 40.4219 31.0838 39.9285 31.2885C39.4352 31.4931 38.9062 31.5985 38.3721 31.5985C37.8379 31.5985 37.309 31.4931 36.8156 31.2885C36.3222 31.0838 35.874 30.7839 35.4967 30.4058C34.93 29.8388 34.5426 29.1177 34.3826 28.3322C34.2226 27.5468 34.2971 26.7316 34.5969 25.9881L29.0885 20.5063V34.9546C29.477 35.1455 29.8488 35.4045 30.1692 35.7249C31.7514 37.3253 31.7514 39.8919 30.1692 41.484C29.4023 42.2479 28.3639 42.6768 27.2814 42.6768C26.1989 42.6768 25.1605 42.2479 24.3936 41.484C23.919 41.0092 23.5691 40.4245 23.3751 39.7819C23.1811 39.1392 23.1489 38.4586 23.2815 37.8005C23.4141 37.1424 23.7073 36.5273 24.1351 36.01C24.5629 35.4926 25.1119 35.089 25.7333 34.8351V20.249C25.2376 20.0384 24.786 19.7366 24.4019 19.3591C23.8306 18.7893 23.4423 18.062 23.2867 17.2703C23.1312 16.4786 23.2154 15.6585 23.5286 14.9149L17.5272 8.8802L1.61788 24.7812C0.981883 25.4266 0.625366 26.2964 0.625366 27.2025C0.625366 28.1087 0.981883 28.9784 1.61788 29.6239L24.8169 52.8146C25.1346 53.1331 25.512 53.3858 25.9275 53.5582C26.343 53.7306 26.7884 53.8193 27.2382 53.8193C27.6881 53.8193 28.1335 53.7306 28.549 53.5582C28.9645 53.3858 29.3419 53.1331 29.6596 52.8146L52.7457 29.7284C53.0642 29.4108 53.3169 29.0334 53.4893 28.6179C53.6617 28.2024 53.7505 27.757 53.7505 27.3071C53.7505 26.8573 53.6617 26.4118 53.4893 25.9963C53.3169 25.5808 53.0642 25.2035 52.7457 24.8858L52.7474 24.8808Z" fill="black"/>
</g>
<defs>
<clipPath id="clip0">
<rect width="53.125" height="53.125" fill="white" transform="translate(0.625 0.687256)"/>
</clipPath>
</defs>
</svg>
