<svg width="60" height="61" viewBox="0 0 60 61" fill="none" xmlns="http://www.w3.org/2000/svg">
<path d="M11.4428 51.1704L7.26477 4.31226H53.1727L48.9891 51.1629L30.1909 56.3748L11.4428 51.1704Z" fill="#E44F26"/>
<path d="M30.2188 52.3921L45.4098 48.1806L48.9836 8.14453H30.2188V52.3921Z" fill="#F1662A"/>
<path d="M30.2188 25.5219H22.6139L22.0896 19.637H30.2188V13.8896H15.8086L15.9462 15.4329L17.3575 31.2692H30.2188V25.5219Z" fill="#EBEBEB"/>
<path d="M30.2187 40.4473L30.1927 40.4548L23.7927 38.7274L23.3837 34.144H17.614L18.4191 43.1657L30.1927 46.4345L30.2187 46.4271V40.4473Z" fill="#EBEBEB"/>
<path d="M30.1984 25.522V31.2693H37.2751L36.6095 38.7235L30.1984 40.4528V46.4325L41.9812 43.1656L42.0667 42.195L43.4167 27.0653L43.558 25.522H30.1984Z" fill="white"/>
<path d="M30.1984 13.8896V19.637H44.0805L44.1957 18.3466L44.4579 15.4329L44.5955 13.8896H30.1984Z" fill="white"/>
</svg>
