<svg width="52" height="52" viewBox="0 0 52 52" fill="none" xmlns="http://www.w3.org/2000/svg">
<g clip-path="url(#clip0)">
<path d="M0.5625 0.500488H51.5625V51.5005H0.5625V0.500488Z" fill="#F7DF1E"/>
<path d="M13.9724 43.1198L17.8751 40.7579C18.6281 42.0929 19.313 43.2224 20.956 43.2224C22.5308 43.2224 23.5239 42.6064 23.5239 40.2102V23.9146H28.3165V40.278C28.3165 45.2419 25.4067 47.5014 21.1614 47.5014C17.3274 47.5014 15.1019 45.5158 13.9722 43.1194" fill="black"/>
<path d="M30.9196 42.6062L34.8219 40.3469C35.8493 42.0245 37.1845 43.2569 39.5464 43.2569C41.5324 43.2569 42.7986 42.264 42.7986 40.8945C42.7986 39.2514 41.4977 38.6692 39.3067 37.711L38.1088 37.197C34.651 35.7254 32.3574 33.8766 32.3574 29.9739C32.3574 26.3792 35.0961 23.6404 39.3755 23.6404C42.4223 23.6404 44.6133 24.7018 46.188 27.4747L42.4562 29.8713C41.6344 28.3993 40.7447 27.8174 39.3753 27.8174C37.9716 27.8174 37.0815 28.7075 37.0815 29.8713C37.0815 31.3091 37.9716 31.8914 40.0255 32.7815L41.2236 33.2949C45.2976 35.0411 47.5913 36.8211 47.5913 40.8262C47.5913 45.1401 44.2021 47.502 39.649 47.502C35.1987 47.502 32.3229 45.3795 30.9194 42.6064" fill="black"/>
</g>
<defs>
<clipPath id="clip0">
<rect width="51" height="51" fill="white" transform="translate(0.5625 0.500488)"/>
</clipPath>
</defs>
</svg>
