<svg width="29" height="29" viewBox="0 0 29 29" fill="none" xmlns="http://www.w3.org/2000/svg">
<path fill-rule="evenodd" clip-rule="evenodd" d="M1.20837 3.42926C1.20837 2.84024 1.44236 2.27534 1.85887 1.85884C2.27537 1.44234 2.84027 1.20835 3.42929 1.20835H25.5684C25.8603 1.20787 26.1494 1.26497 26.4192 1.37639C26.689 1.4878 26.9342 1.65133 27.1407 1.85763C27.3472 2.06392 27.511 2.30892 27.6227 2.57861C27.7345 2.84829 27.7919 3.13736 27.7917 3.42926V25.5683C27.792 25.8603 27.7348 26.1495 27.6232 26.4193C27.5117 26.6891 27.348 26.9343 27.1416 27.1408C26.9353 27.3473 26.6902 27.511 26.4204 27.6227C26.1507 27.7344 25.8615 27.7918 25.5696 27.7917H3.42929C3.13753 27.7917 2.84864 27.7342 2.5791 27.6225C2.30957 27.5108 2.06469 27.3471 1.85844 27.1408C1.65219 26.9344 1.48863 26.6894 1.37708 26.4198C1.26554 26.1502 1.20822 25.8613 1.20837 25.5696V3.42926ZM11.7305 11.3438H15.3302V13.1515C15.8497 12.1123 17.1789 11.1771 19.1763 11.1771C23.0055 11.1771 23.913 13.247 23.913 17.0448V24.0797H20.0378V17.9099C20.0378 15.747 19.5182 14.5266 18.1987 14.5266C16.3681 14.5266 15.6069 15.8425 15.6069 17.9099V24.0797H11.7305V11.3438ZM5.08471 23.9141H8.96104V11.1771H5.08471V23.9129V23.9141ZM9.51567 7.02285C9.52297 7.35474 9.46392 7.68476 9.34196 7.99352C9.22 8.30228 9.03759 8.58357 8.80545 8.82089C8.5733 9.0582 8.29609 9.24675 7.99009 9.37548C7.68409 9.50421 7.35546 9.57052 7.02348 9.57052C6.6915 9.57052 6.36287 9.50421 6.05687 9.37548C5.75086 9.24675 5.47366 9.0582 5.24151 8.82089C5.00937 8.58357 4.82696 8.30228 4.705 7.99352C4.58304 7.68476 4.52398 7.35474 4.53129 7.02285C4.54564 6.37138 4.81451 5.75143 5.28032 5.29576C5.74613 4.84009 6.37185 4.58493 7.02348 4.58493C7.6751 4.58493 8.30083 4.84009 8.76664 5.29576C9.23245 5.75143 9.50132 6.37138 9.51567 7.02285Z" fill="black"/>
</svg>
