<svg width="36" height="36" viewBox="0 0 36 36" fill="none" xmlns="http://www.w3.org/2000/svg">
<path d="M29.52 16.2H6.48002C5.48642 16.2 5.40002 17.0046 5.40002 18C5.40002 18.9954 5.48642 19.8 6.48002 19.8H29.52C30.5136 19.8 30.6 18.9954 30.6 18C30.6 17.0046 30.5136 16.2 29.52 16.2ZM29.52 23.4H6.48002C5.48642 23.4 5.40002 24.2046 5.40002 25.2C5.40002 26.1954 5.48642 27 6.48002 27H29.52C30.5136 27 30.6 26.1954 30.6 25.2C30.6 24.2046 30.5136 23.4 29.52 23.4ZM6.48002 12.6H29.52C30.5136 12.6 30.6 11.7954 30.6 10.8C30.6 9.8046 30.5136 9 29.52 9H6.48002C5.48642 9 5.40002 9.8046 5.40002 10.8C5.40002 11.7954 5.48642 12.6 6.48002 12.6Z" fill="black"/>
</svg>
