<svg width="13" height="12" viewBox="0 0 13 12" fill="none" xmlns="http://www.w3.org/2000/svg">
<g clip-path="url(#clip0)">
<path d="M5.7555 0.0429734C3.17138 0.316123 1.15576 2.44557 1.15576 5.03213C1.15576 6.36272 1.70027 7.63882 2.66951 8.5797C3.63874 9.52057 4.9533 10.0492 6.32401 10.0492C8.98278 10.0492 11.1764 8.09809 11.4635 5.58957C11.5152 5.14919 11.0156 4.798 10.5792 5.06C10.1104 5.35046 9.56983 5.51328 9.01401 5.5314C8.45819 5.54952 7.90757 5.42229 7.41977 5.16302C6.93197 4.90375 6.52493 4.52197 6.24123 4.05763C5.95754 3.5933 5.80763 3.06347 5.80718 2.52361C5.80718 1.93272 5.9852 1.37527 6.28955 0.912591C6.54796 0.539102 6.26658 0.00395209 5.7555 0.0429734Z" fill="#D2CECF"/>
</g>
<defs>
<clipPath id="clip0">
<rect width="11.5246" height="11.5246" fill="white" transform="translate(0.549194 0.0409546)"/>
</clipPath>
</defs>
</svg>
