<svg width="54" height="55" viewBox="0 0 54 55" fill="none" xmlns="http://www.w3.org/2000/svg">
<path fill-rule="evenodd" clip-rule="evenodd" d="M27.25 4.28906C31.8469 4.28906 36.3405 5.65219 40.1627 8.20608C43.9848 10.76 46.9638 14.3899 48.723 18.6368C50.4821 22.8838 50.9424 27.557 50.0456 32.0656C49.1488 36.5741 46.9352 40.7155 43.6847 43.966C40.4342 47.2164 36.2929 49.43 31.7843 50.3268C27.2758 51.2236 22.6026 50.7634 18.3556 49.0042C14.1086 47.2451 10.4787 44.2661 7.92483 40.4439C5.37094 36.6218 4.00781 32.1281 4.00781 27.5312C4.00781 21.367 6.45654 15.4553 10.8153 11.0965C15.174 6.73779 21.0858 4.28906 27.25 4.28906Z" fill="#83CD29"/>
<path d="M27.25 50.7735C26.6229 50.7738 26.0068 50.6089 25.4637 50.2954L19.7793 46.9303C18.931 46.4555 19.3443 46.2878 19.6249 46.1898C20.5272 45.9111 21.3911 45.5207 22.1965 45.0277C22.2639 44.9965 22.3382 44.9831 22.4123 44.9886C22.4863 44.9941 22.5578 45.0184 22.6198 45.0593L26.9877 47.6541C27.069 47.6971 27.1597 47.7196 27.2517 47.7196C27.3437 47.7196 27.4343 47.6971 27.5156 47.6541L44.5488 37.8227C44.6285 37.7749 44.6945 37.7073 44.7402 37.6263C44.7859 37.5454 44.8097 37.454 44.8095 37.3611V17.6949C44.8095 17.6005 44.7853 17.5077 44.739 17.4254C44.6928 17.3431 44.6262 17.2741 44.5455 17.2251L27.5123 7.40194C27.432 7.35671 27.3414 7.33294 27.2492 7.33294C27.157 7.33294 27.0664 7.35671 26.986 7.40194L9.9628 17.2284C9.8816 17.2764 9.81418 17.3446 9.76706 17.4263C9.71994 17.5081 9.69473 17.6006 9.69386 17.6949V37.3528C9.69409 37.4455 9.71897 37.5365 9.76593 37.6164C9.8129 37.6964 9.88027 37.7624 9.96114 37.8077L14.6328 40.5038C17.1646 41.7688 18.7151 40.278 18.7151 38.7806V19.3717C18.7151 19.2396 18.7676 19.1129 18.861 19.0195C18.9544 18.9261 19.0811 18.8736 19.2132 18.8736H21.3714C21.5035 18.8736 21.6302 18.9261 21.7236 19.0195C21.817 19.1129 21.8694 19.2396 21.8694 19.3717V38.7822C21.8694 42.1606 20.03 44.0947 16.8259 44.0947C15.4436 44.1188 14.083 43.7491 12.9029 43.0289L8.4255 40.4606C7.88194 40.1441 7.43093 39.6905 7.11748 39.1452C6.80402 38.5998 6.6391 37.9818 6.63917 37.3528V17.6949C6.63756 17.0649 6.80178 16.4456 7.11534 15.8992C7.42891 15.3528 7.88076 14.8986 8.4255 14.5821L25.4604 4.74735C26.0091 4.44714 26.6245 4.28979 27.25 4.28979C27.8755 4.28979 28.4909 4.44714 29.0397 4.74735L46.0729 14.5821C46.6163 14.898 47.0675 15.351 47.3812 15.8957C47.695 16.4405 47.8603 17.058 47.8608 17.6866V37.3528C47.8599 37.9818 47.6944 38.5996 47.3807 39.1448C47.0671 39.6901 46.6162 40.1437 46.0729 40.4606L29.0397 50.2954C28.4955 50.6094 27.8782 50.7743 27.25 50.7735ZM33.0406 37.0656C38.4378 37.0656 41.5323 34.9406 41.5323 31.2285C41.5323 27.5496 39.0421 26.5685 33.8109 25.8778C28.5217 25.1772 27.9838 24.817 27.9838 23.5785C27.9838 22.5559 28.4387 21.1912 32.3566 21.1912C35.8563 21.1912 37.1462 21.9449 37.6691 24.304C37.6944 24.4124 37.7551 24.5092 37.8418 24.579C37.9285 24.6488 38.036 24.6876 38.1473 24.6892H40.3652C40.4333 24.6882 40.5004 24.6734 40.5625 24.6455C40.6246 24.6176 40.6803 24.5773 40.7262 24.527C40.7721 24.4768 40.8072 24.4177 40.8293 24.3533C40.8515 24.289 40.8602 24.2208 40.855 24.1529C40.513 20.0889 37.8136 18.1946 32.355 18.1946C27.499 18.1946 24.6021 20.2449 24.6021 23.6814C24.6021 27.4102 27.4841 28.4394 32.1458 28.901C37.7223 29.4472 38.1556 30.2623 38.1556 31.3597C38.1556 33.2639 36.6282 34.0757 33.039 34.0757C28.5316 34.0757 27.5389 32.9435 27.2068 30.7022C27.1876 30.5861 27.1279 30.4805 27.0382 30.4043C26.9486 30.328 26.8348 30.2859 26.7171 30.2855H24.5124C24.3803 30.2855 24.2536 30.338 24.1602 30.4314C24.0668 30.5248 24.0144 30.6515 24.0144 30.7836C24.0193 33.644 25.5816 37.0656 33.0357 37.0656H33.0406Z" fill="white"/>
</svg>
