<svg width="52" height="51" viewBox="0 0 52 51" fill="none" xmlns="http://www.w3.org/2000/svg">
<g clip-path="url(#clip0)">
<path d="M25.9586 0.17041C13.1774 0.17041 13.9755 5.7131 13.9755 5.7131L13.9897 11.4555H26.1865V13.1795H9.14525C9.14525 13.1795 0.966553 12.252 0.966553 25.1481C0.966553 38.0446 8.10512 37.5873 8.10512 37.5873H12.3654V31.6028C12.3654 31.6028 12.1357 24.4642 19.39 24.4642H31.4871C31.4871 24.4642 38.2837 24.574 38.2837 17.8956V6.85318C38.2837 6.85318 39.3159 0.17041 25.9586 0.17041ZM19.2333 4.03206C19.5215 4.0318 19.8069 4.08838 20.0733 4.19855C20.3396 4.30873 20.5816 4.47035 20.7854 4.67415C20.9892 4.87795 21.1508 5.11994 21.261 5.38627C21.3712 5.6526 21.4278 5.93805 21.4275 6.22627C21.4278 6.51449 21.3712 6.79993 21.261 7.06626C21.1508 7.33259 20.9892 7.57458 20.7854 7.77838C20.5816 7.98219 20.3396 8.1438 20.0733 8.25398C19.8069 8.36415 19.5215 8.42073 19.2333 8.42047C18.9451 8.42073 18.6596 8.36415 18.3933 8.25398C18.127 8.1438 17.885 7.98219 17.6812 7.77838C17.4774 7.57458 17.3157 7.33259 17.2056 7.06626C17.0954 6.79993 17.0388 6.51449 17.0391 6.22627C17.0388 5.93805 17.0954 5.6526 17.2056 5.38627C17.3157 5.11994 17.4774 4.87795 17.6812 4.67415C17.885 4.47035 18.127 4.30873 18.3933 4.19855C18.6596 4.08838 18.9451 4.0318 19.2333 4.03206Z" fill="url(#paint0_linear)"/>
<path d="M26.3211 50.2553C39.1023 50.2553 38.3043 44.7126 38.3043 44.7126L38.2901 38.9704H26.093V37.2464H43.1343C43.1343 37.2464 51.313 38.1739 51.313 25.2774C51.313 12.3811 44.1744 12.8384 44.1744 12.8384H39.9142V18.8227C39.9142 18.8227 40.1438 25.9613 32.8896 25.9613H20.7924C20.7924 25.9613 13.9959 25.8515 13.9959 32.5301V43.5727C13.9959 43.5727 12.9639 50.2553 26.3209 50.2553H26.3211ZM33.0465 46.394C32.7583 46.3943 32.4728 46.3377 32.2065 46.2275C31.9402 46.1174 31.6982 45.9558 31.4944 45.7519C31.2906 45.5481 31.1289 45.3062 31.0188 45.0398C30.9086 44.7735 30.852 44.4881 30.8523 44.1998C30.852 43.9116 30.9085 43.6261 31.0187 43.3598C31.1289 43.0934 31.2905 42.8514 31.4943 42.6476C31.6981 42.4438 31.9401 42.2821 32.2064 42.1719C32.4728 42.0618 32.7582 42.0052 33.0465 42.0054C33.3347 42.0052 33.6201 42.0617 33.8865 42.1719C34.1528 42.2821 34.3948 42.4437 34.5986 42.6475C34.8024 42.8513 34.964 43.0933 35.0742 43.3596C35.1844 43.626 35.2409 43.9114 35.2407 44.1996C35.2409 44.4879 35.1844 44.7733 35.0742 45.0396C34.964 45.306 34.8024 45.548 34.5986 45.7518C34.3948 45.9556 34.1528 46.1172 33.8865 46.2273C33.6201 46.3375 33.3347 46.3941 33.0465 46.3938V46.394Z" fill="url(#paint1_linear)"/>
</g>
<defs>
<linearGradient id="paint0_linear" x1="5.80487" y1="4.67527" x2="30.7553" y2="29.3768" gradientUnits="userSpaceOnUse">
<stop stop-color="#387EB8"/>
<stop offset="1" stop-color="#366994"/>
</linearGradient>
<linearGradient id="paint1_linear" x1="21.119" y1="20.5369" x2="47.9128" y2="45.866" gradientUnits="userSpaceOnUse">
<stop stop-color="#FFE052"/>
<stop offset="1" stop-color="#FFC331"/>
</linearGradient>
<clipPath id="clip0">
<rect width="50.4688" height="50.2716" fill="white" transform="translate(0.9375 0.156006)"/>
</clipPath>
</defs>
</svg>
