<svg width="56" height="50" viewBox="0 0 56 50" fill="none" xmlns="http://www.w3.org/2000/svg">
<g clip-path="url(#clip0)">
<path d="M45.4265 16.0894C44.8385 15.8877 44.2455 15.7008 43.6481 15.5289C43.7485 15.1189 43.8409 14.7138 43.9229 14.3158C45.2692 7.78056 44.3891 2.51562 41.3829 0.782148C38.5006 -0.879669 33.7869 0.853153 29.0263 4.99626C28.5571 5.40531 28.0984 5.82615 27.6505 6.25838C27.3506 5.97096 27.0455 5.68912 26.7352 5.41301C21.7458 0.983077 16.7449 -0.883986 13.7419 0.854448C10.8622 2.52145 10.0095 7.47086 11.2216 13.6645C11.3422 14.2779 11.4783 14.8881 11.6299 15.4946C10.922 15.6958 10.2389 15.9099 9.58523 16.1378C3.73563 18.1773 0 21.3734 0 24.6886C0 28.1126 4.01037 31.5469 10.103 33.6294C10.5969 33.7975 11.095 33.9533 11.5967 34.0966C11.4337 34.7498 11.2891 35.4075 11.1629 36.0688C10.0074 42.1549 10.9097 46.9874 13.7816 48.6438C16.7479 50.3544 21.7264 48.5963 26.574 44.3587C26.967 44.0142 27.3515 43.6599 27.7269 43.2962C28.2119 43.7642 28.71 44.2186 29.2203 44.6589C33.9162 48.6995 38.5537 50.3311 41.4228 48.6701C44.3863 46.9546 45.3495 41.7632 44.099 35.4472C44.0005 34.9524 43.89 34.4601 43.7677 33.9706C44.1173 33.867 44.4605 33.7604 44.795 33.6494C51.1289 31.551 55.25 28.1583 55.25 24.6886C55.25 21.3613 51.3937 18.1436 45.4265 16.0894ZM44.0528 31.4092C43.7507 31.5092 43.4407 31.6056 43.1248 31.6995C42.4255 29.4858 41.482 27.1321 40.3271 24.7C41.4291 22.326 42.3364 20.0023 43.016 17.803C43.5812 17.9666 44.1296 18.1391 44.6584 18.321C49.7712 20.0812 52.8898 22.6834 52.8898 24.6886C52.8898 26.8243 49.5217 29.597 44.0528 31.4092ZM41.7837 35.9056C42.3366 38.6984 42.4154 41.2234 42.0491 43.1976C41.7202 44.9714 41.0585 46.1539 40.2401 46.6276C38.4991 47.6355 34.7756 46.3254 30.7598 42.8697C30.2851 42.4604 29.8218 42.0379 29.3706 41.6029C30.9275 39.9003 32.4833 37.921 34.0018 35.7226C36.6728 35.4856 39.1962 35.098 41.4846 34.5691C41.5972 35.0238 41.6973 35.4697 41.7837 35.9056ZM18.8359 46.4534C17.1348 47.0541 15.7799 47.0713 14.9609 46.5991C13.2181 45.594 12.4936 41.7138 13.4819 36.5091C13.5993 35.894 13.7338 35.2824 13.8852 34.6748C16.1483 35.1755 18.6533 35.5355 21.3306 35.7526C22.8595 37.9037 24.4602 39.8808 26.0735 41.6121C25.7306 41.9439 25.3797 42.2671 25.0209 42.5816C22.8772 44.4554 20.7291 45.7848 18.8359 46.4534ZM10.8666 31.3961C8.17247 30.4752 5.94758 29.2784 4.42259 27.9725C3.05213 26.7991 2.36043 25.6339 2.36043 24.6886C2.36043 22.6767 5.35968 20.1106 10.3622 18.3666C10.9693 18.155 11.6047 17.9554 12.264 17.7681C12.9555 20.0169 13.8624 22.3683 14.9568 24.746C13.8481 27.1589 12.9283 29.5478 12.2301 31.8232C11.7722 31.692 11.3175 31.5496 10.8666 31.3961ZM13.538 13.211C12.4997 7.90465 13.1892 3.90183 14.9246 2.89719C16.7729 1.82715 20.8601 3.35279 25.1681 7.17799C25.449 7.42799 25.7254 7.68306 25.9971 7.94307C24.3918 9.66683 22.8057 11.6293 21.2905 13.7676C18.692 14.0085 16.2047 14.3952 13.9178 14.9134C13.7769 14.3493 13.6503 13.7817 13.538 13.2112V13.211ZM37.3704 19.096C36.8302 18.163 36.27 17.2418 35.6902 16.3329C37.453 16.5558 39.142 16.8517 40.7281 17.2134C40.252 18.7397 39.6585 20.3353 38.9599 21.9712C38.4492 21.0023 37.9193 20.0437 37.3704 19.096ZM27.6515 9.62992C28.7401 10.8094 29.8305 12.1261 30.9029 13.5548C28.7274 13.4521 26.5483 13.4517 24.3728 13.5535C25.4463 12.138 26.5459 10.823 27.6515 9.62992ZM17.8704 19.1122C17.3283 20.0523 16.8082 21.0049 16.3106 21.9692C15.6234 20.3392 15.0353 18.7363 14.5551 17.1884C16.1315 16.8357 17.8125 16.5474 19.5641 16.3286C18.9778 17.243 18.4131 18.1711 17.8704 19.112V19.1122ZM19.6144 33.2165C17.8047 33.0145 16.0985 32.7411 14.5225 32.3979C15.0103 30.8224 15.6114 29.1854 16.3134 27.5204C16.813 28.4854 17.3352 29.4386 17.8796 30.3791C18.4395 31.346 19.0192 32.293 19.6144 33.2165ZM27.7167 39.9134C26.5979 38.7066 25.4821 37.3713 24.3924 35.9352C25.4504 35.9766 26.5288 35.9978 27.625 35.9978C28.7512 35.9978 29.8644 35.9725 30.9601 35.9238C29.8842 37.3857 28.798 38.723 27.7167 39.9134ZM38.9821 27.4353C39.7206 29.1187 40.3431 30.7471 40.8373 32.2956C39.2355 32.6612 37.5059 32.9556 35.6835 33.1742C36.2675 32.2485 36.833 31.3112 37.3796 30.3629C37.9355 29.3991 38.4697 28.423 38.9821 27.4353ZM35.3352 29.1837C34.4983 30.6375 33.6143 32.0638 32.6847 33.4602C31.0008 33.5794 29.3131 33.6387 27.625 33.6378C25.9056 33.6378 24.2332 33.5843 22.6227 33.4798C21.6688 32.0867 20.768 30.6579 19.9222 29.1966H19.9224C19.0805 27.7431 18.2941 26.2581 17.565 24.7449C18.2923 23.2313 19.0763 21.7457 19.9153 20.291L19.915 20.2912C20.7537 18.8362 21.6473 17.4136 22.594 16.0264C24.2371 15.9021 25.922 15.8374 27.6248 15.8374H27.625C29.3356 15.8374 31.0227 15.9027 32.6653 16.0279C33.6024 17.413 34.4903 18.8308 35.3274 20.2785C36.1692 21.7299 36.9636 23.2084 37.7092 24.7115C36.9712 26.2299 36.1794 27.7216 35.3352 29.1837ZM40.2041 2.82683C42.0541 3.89385 42.7736 8.19666 41.6112 13.8393C41.537 14.1993 41.4537 14.566 41.363 14.9378C39.0706 14.4086 36.5815 14.0152 33.9755 13.7707C32.4574 11.6088 30.8843 9.6433 29.3052 7.94178C29.719 7.54283 30.1427 7.15424 30.5759 6.77635C34.6549 3.22675 38.4672 1.82521 40.2041 2.82683ZM27.625 19.7549C30.3497 19.7549 32.5587 21.9638 32.5587 24.6886C32.5587 27.4133 30.3497 29.6222 27.625 29.6222C24.9003 29.6222 22.6913 27.4133 22.6913 24.6886C22.6913 21.9638 24.9003 19.7549 27.625 19.7549Z" fill="#00D8FF"/>
</g>
<defs>
<clipPath id="clip0">
<rect width="55.25" height="49.207" fill="white" transform="translate(0 0.156494)"/>
</clipPath>
</defs>
</svg>
