<svg width="50" height="51" viewBox="0 0 50 51" fill="none" xmlns="http://www.w3.org/2000/svg">
<path d="M13.3614 24.3079C17.088 25.6177 21.0194 26.2483 24.9688 26.1696C28.9182 26.2478 32.8496 25.6167 36.5761 24.3063C39.485 23.1718 40.5165 21.9109 40.5165 21.1852V15.6375C39.4995 16.3185 38.4084 16.8818 37.2643 17.3166C33.3215 18.7284 29.1562 19.4168 24.9688 19.3484C20.7817 19.4155 16.6168 18.7283 12.6732 17.3197C11.5285 16.8849 10.4373 16.3205 9.42102 15.6375V21.1774C9.42102 21.9171 10.4557 23.1718 13.3614 24.3079Z" fill="#FFDA44"/>
<path d="M13.3614 34.7714C14.6779 35.2734 16.0355 35.6603 17.4188 35.9277C19.9064 36.4089 22.4351 36.6457 24.9688 36.6346C27.5024 36.6462 30.031 36.41 32.5187 35.9293C33.902 35.6619 35.2596 35.275 36.5761 34.7729C39.485 33.6384 40.5165 32.3775 40.5165 31.6518V26.3616C39.6758 26.8674 38.7923 27.2982 37.876 27.649C33.734 29.1156 29.362 29.8255 24.9688 29.7448C20.575 29.8229 16.203 29.1104 12.0615 27.6412C11.1456 27.2895 10.2621 26.8587 9.42102 26.3538V31.6487C9.42102 32.3759 10.4557 33.6322 13.3614 34.7714Z" fill="#FFDA44"/>
<path d="M24.9688 47.3168C33.5518 47.3168 40.5165 44.5952 40.5165 41.24V36.8127C39.7517 37.2737 38.9506 37.6714 38.121 38.0019L37.876 38.1002C33.7348 39.5711 29.3628 40.2852 24.9688 40.2085C20.5746 40.2874 16.2022 39.5732 12.0615 38.1002C11.9772 38.069 11.896 38.0331 11.8165 38.0019C10.9869 37.6714 10.1858 37.2737 9.42102 36.8127V41.24C9.42102 44.5952 16.3857 47.3168 24.9688 47.3168Z" fill="#FFDA44"/>
<path d="M24.9688 15.7749C33.5555 15.7749 40.5165 13.0542 40.5165 9.69811C40.5165 6.342 33.5555 3.62134 24.9688 3.62134C16.382 3.62134 9.42102 6.342 9.42102 9.69811C9.42102 13.0542 16.382 15.7749 24.9688 15.7749Z" fill="#FFDA44"/>
</svg>
