<svg width="37" height="37" viewBox="0 0 37 37" fill="none" xmlns="http://www.w3.org/2000/svg">
<g clip-path="url(#clip0)">
<path d="M37.0001 17.9095C36.9997 20.6956 35.8931 23.3676 33.9236 25.3382C31.9541 27.3089 29.2828 28.417 26.4967 28.4191H10.5081C7.72077 28.4191 5.04763 27.3118 3.07671 25.3409C1.10579 23.37 -0.00146484 20.6968 -0.00146484 17.9095C-0.00146484 15.1222 1.10579 12.4491 3.07671 10.4781C5.04763 8.50722 7.72077 7.39996 10.5081 7.39996H26.489C29.2751 7.40037 31.9471 8.50691 33.9177 10.4764C35.8884 12.4459 36.9965 15.1172 36.9985 17.9033L37.0001 17.9095ZM26.4905 10.9026C25.571 10.9026 24.6604 11.0837 23.8109 11.4356C22.9613 11.7875 22.1894 12.3033 21.5392 12.9535C20.889 13.6038 20.3732 14.3757 20.0213 15.2252C19.6694 16.0748 19.4883 16.9853 19.4883 17.9049C19.4883 18.8244 19.6694 19.735 20.0213 20.5845C20.3732 21.4341 20.889 22.206 21.5392 22.8562C22.1894 23.5064 22.9613 24.0222 23.8109 24.3741C24.6604 24.726 25.571 24.9071 26.4905 24.9071C27.4101 24.9073 28.3207 24.7264 29.1703 24.3747C30.0199 24.023 30.792 23.5074 31.4423 22.8573C32.0927 22.2072 32.6086 21.4354 32.9607 20.586C33.3128 19.7365 33.4941 18.826 33.4943 17.9064C33.4945 16.9869 33.3136 16.0763 32.9619 15.2267C32.6102 14.377 32.0946 13.605 31.4445 12.9546C30.7944 12.3043 30.0226 11.7883 29.1732 11.4362C28.3237 11.0842 27.4132 10.9028 26.4936 10.9026H26.4905Z" fill="black"/>
<g clip-path="url(#clip1)">
<path d="M9.7555 13.043C7.17138 13.3161 5.15576 15.4456 5.15576 18.0321C5.15576 19.3627 5.70027 20.6388 6.66951 21.5797C7.63874 22.5206 8.9533 23.0492 10.324 23.0492C12.9828 23.0492 15.1764 21.0981 15.4635 18.5896C15.5152 18.1492 15.0156 17.798 14.5792 18.06C14.1104 18.3505 13.5698 18.5133 13.014 18.5314C12.4582 18.5495 11.9076 18.4223 11.4198 18.163C10.932 17.9037 10.5249 17.522 10.2412 17.0576C9.95754 16.5933 9.80763 16.0635 9.80718 15.5236C9.80718 14.9327 9.9852 14.3753 10.2896 13.9126C10.548 13.5391 10.2666 13.004 9.7555 13.043Z" fill="#D2CECF"/>
</g>
</g>
<defs>
<clipPath id="clip0">
<rect width="37" height="37" fill="white"/>
</clipPath>
<clipPath id="clip1">
<rect width="11.5246" height="11.5246" fill="white" transform="translate(4.54919 13.041)"/>
</clipPath>
</defs>
</svg>
